Coordinates
version=1
nRows=22
nColumns=24
inDegrees=yes

Units are S.I. units (second, meters, Newtons, ...)
Angles are in degrees.

endheader
time	pelvis_tilt	pelvis_list	pelvis_rotation	pelvis_tx	pelvis_ty	pelvis_tz	hip_flexion_r	hip_adduction_r	hip_rotation_r	knee_angle_r	ankle_angle_r	subtalar_angle_r	mtp_angle_r	hip_flexion_l	hip_adduction_l	hip_rotation_l	knee_angle_l	ankle_angle_l	subtalar_angle_l	mtp_angle_l	lumbar_extension	lumbar_bending	lumbar_rotation
      3.60000000	    -10.12009891	      0.61604512	      4.99522129	     -1.65660464	     -0.02624542	     -0.71567615	     33.48153683	     -3.24384372	    -14.77968897	    -11.80447410	     -4.47198105	     -3.60018668	     12.37064395	     -5.97859169	      2.36129302	    -10.27800739	    -13.21041188	     10.24806800	      7.75350621	      8.70472250	      8.11730685	     -0.13441424	    -11.42127490
      3.60500000	    -10.14406543	      0.44085893	      4.97876404	     -1.64954399	     -0.02665302	     -0.71496811	     33.45944222	     -2.96495428	    -14.26712335	    -12.39043138	     -5.04528752	     -4.44555185	     11.84032076	     -5.95559689	      1.97497618	    -10.26104207	    -14.02442633	      9.79421367	      7.91946905	      8.58877740	      8.30282295	      0.07880354	    -11.52690838
      3.61000000	    -10.19992614	      0.21124182	      4.84735192	     -1.64238493	     -0.02707128	     -0.71410561	     33.49172549	     -2.57794129	    -13.73172435	    -12.99738286	     -5.68482541	     -5.30406645	     10.99966022	     -5.88158941	      1.52625987	    -10.42678429	    -14.88257820	      9.37138316	      8.18222143	      8.44759348	      8.54003307	      0.37220733	    -11.50525478
      3.61500000	    -10.26517141	     -0.05080235	      4.71331862	     -1.63520198	     -0.02743647	     -0.71321900	     33.52819757	     -2.16757900	    -13.22671931	    -13.60445549	     -6.27777222	     -6.15833157	      9.91961958	     -5.74620612	      1.03590124	    -10.62739660	    -15.82412312	      8.88588186	      8.38392151	      8.30321499	      8.79044662	      0.70176913	    -11.49340129
      3.62000000	    -10.33169853	     -0.31236783	      4.69001792	     -1.62807246	     -0.02763277	     -0.71244366	     33.54668405	     -1.84580264	    -12.97266977	    -14.17588859	     -6.93746943	     -7.02226791	      9.30325313	     -5.55050584	      0.53792241	    -10.66235010	    -16.82488515	      8.25146537	      8.49462791	      8.19399122	      9.03526656	      1.00450545	    -11.64657676
      3.62500000	    -10.42101436	     -0.58474309	      4.42831000	     -1.62087762	     -0.02784882	     -0.71134577	     33.62300562	     -1.37106328	    -12.46355060	    -14.78987190	     -7.51408958	     -7.89435969	      7.93959116	     -5.32861174	      0.02288216	    -11.03595433	    -17.86747789	      7.61404698	      8.72268102	      8.08920304	      9.30268595	      1.36787833	    -11.47573741
      3.63000000	    -10.49545741	     -0.89596876	      4.39943031	     -1.61368449	     -0.02782412	     -0.71058646	     33.61256395	     -1.02901268	    -12.39176108	    -15.30798109	     -8.09098800	     -8.66399950	      7.42360488	     -5.03698958	     -0.52854745	    -11.00473508	    -18.98702830	      6.78096723	      8.67409072	      7.98401157	      9.56626368	      1.72630900	    -11.61929389
      3.63500000	    -10.56396218	     -1.14792144	      4.17683724	     -1.60653638	     -0.02779799	     -0.70942430	     33.63071699	     -0.58533613	    -11.89355183	    -15.93921388	     -8.30655005	     -9.43715025	      5.06558426	     -4.72017080	     -1.06159096	    -11.42741512	    -20.18246848	      5.88972253	      8.85591268	      8.08928288	      9.79454928	      2.05727396	    -11.53514231
      3.64000000	    -10.63019298	     -1.38752503	      4.04325563	     -1.59939626	     -0.02762317	     -0.70852892	     33.59120493	     -0.25377990	    -11.71153392	    -16.42910999	     -8.72589623	    -10.19466389	      4.73758975	     -4.34487476	     -1.54684407	    -11.54066209	    -21.44439176	      4.84565066	      8.72218579	      7.97903680	     10.01889579	      2.37590052	    -11.54694528
      3.64500000	    -10.69934981	     -1.57085272	      3.85512445	     -1.59225630	     -0.02741991	     -0.70741546	     33.53695033	      0.08839263	    -11.37144001	    -16.91308134	     -8.95388007	    -11.01779088	      4.06728757	     -3.91473067	     -2.01019032	    -11.84469930	    -22.78912553	      3.68298675	      8.66526343	      7.98840651	     10.23675389	      2.62360292	    -11.50239909
      3.65000000	    -10.74874773	     -1.76739502	      3.57795845	     -1.58509298	     -0.02713822	     -0.70620119	     33.44745154	      0.49992206	    -11.01630565	    -17.41329397	     -8.89414857	    -11.49778849	      2.54279140	     -3.47781457	     -2.50280405	    -12.24922967	    -24.16295085	      2.29544992	      8.53921152	      8.50785663	     10.42487500	      2.91624818	    -11.30654236
      3.65500000	    -10.71375197	     -1.96635271	      3.46714233	     -1.57799493	     -0.02662954	     -0.70533547	     33.18195694	      0.80239843	    -10.90286282	    -17.75278453	     -8.90179399	    -11.93128848	      2.33793458	     -3.04392589	     -2.96614941	    -12.29277971	    -25.62633325	      0.81810350	      8.14876990	      8.42629104	     10.51898750	      3.20174671	    -11.33907622
      3.66000000	    -10.73319554	     -2.10088767	      3.27619492	     -1.57098463	     -0.02620251	     -0.70422797	     32.97076424	      1.12377518	    -10.59924490	    -18.07883316	     -8.81306146	    -12.46047297	      1.98212298	     -2.50130708	     -3.38288091	    -12.46767054	    -27.15770094	     -0.83044876	      7.72481975	      8.60167877	     10.64851627	      3.40748520	    -11.26870715
      3.66500000	    -10.68911250	     -2.31933916	      3.07507620	     -1.56387192	     -0.02568273	     -0.70325503	     32.64090846	      1.51183310	    -10.51052515	    -18.32660950	     -8.61121346	    -12.67567791	      1.90133365	     -1.99294233	     -3.89066249	    -12.63965377	    -28.74781990	     -2.49063550	      7.28227585	      8.49505807	     10.72782058	      3.73279755	    -11.13573208
      3.67000000	    -10.79247450	     -2.43728063	      2.82193475	     -1.55703729	     -0.02530250	     -0.70202226	     32.47672507	      1.88143499	    -10.07162204	    -18.57321818	     -8.40135222	    -13.09544920	      1.20564671	     -1.27103671	     -4.30035011	    -12.81329430	    -30.33034350	     -4.62268359	      6.65233322	      9.64810026	     10.91336480	      3.92850951	    -10.99509040
      3.67500000	    -10.67922740	     -2.68790372	      2.66241993	     -1.55021799	     -0.02471980	     -0.70114297	     32.01556431	      2.30806864	     -9.97340355	    -18.70152137	     -8.16267709	    -13.36328675	      1.17693248	     -0.71412684	     -4.82792977	    -12.81250625	    -32.04685213	     -6.38987921	      6.00394612	      9.41164042	     10.86942339	      4.28359512	    -10.89573372
      3.68000000	    -10.62629177	     -2.90078445	      2.48465469	     -1.54356053	     -0.02419140	     -0.70021429	     31.61196535	      2.72117191	     -9.77260833	    -18.80218610	     -7.94914894	    -13.69979790	      1.09641938	     -0.04748766	     -5.30084944	    -12.76311092	    -33.79351452	     -8.21668720	      5.29467325	      9.19681804	     10.86430948	      4.59243724	    -10.78599140
      3.68500000	    -10.72699085	     -3.06117626	      2.25899410	     -1.53708765	     -0.02383835	     -0.69920596	     31.38238804	      3.12024104	     -9.36407931	    -18.91710212	     -7.69641270	    -14.06215054	      0.57963850	      0.82439316	     -5.70146943	    -12.68784539	    -35.55494269	    -10.13097681	      4.53458260	      9.48781302	     10.99464264	      4.85370806	    -10.64562664
      3.69000000	    -10.63209852	     -3.29939926	      2.09682860	     -1.53070981	     -0.02328805	     -0.69839048	     30.91209903	      3.54801112	     -9.22826222	    -18.96422676	     -7.46225155	    -14.35165972	      0.43678922	      1.52728167	     -6.17671211	    -12.56137002	    -37.36141322	    -11.78288934	      3.78722964	      9.25097988	     10.89527555	      5.19793188	    -10.53204383
      3.69500000	    -10.61401940	     -3.51947380	      1.90888542	     -1.52440078	     -0.02281660	     -0.69755748	     30.51139870	      3.97140666	     -9.00470076	    -18.99051755	     -7.20779615	    -14.61633714	      0.22282794	      2.33105970	     -6.60638434	    -12.39951208	    -39.16654345	    -13.32503135	      3.00212347	      9.06849584	     10.87354450	      5.51961161	    -10.38087333
      3.70000000	    -10.69651445	     -3.72367178	      1.67838525	     -1.51815339	     -0.02248313	     -0.69668180	     30.22192107	      4.39640184	     -8.71813130	    -19.04533491	     -6.80032486	    -14.73789054	     -0.50857461	      3.25540388	     -7.01648839	    -12.29101981	    -40.96236350	    -14.78953710	      2.18956212	      9.31453625	     10.95171452	      5.83459366	    -10.16766290
      3.70500000	    -10.59532430	     -3.95581991	      1.50742333	     -1.51199782	     -0.02186819	     -0.69599682	     29.68539285	      4.80494411	     -8.58309635	    -18.98516482	     -6.54512069	    -14.87071240	     -0.58024105	      3.99944243	     -7.42346994	    -12.10944598	    -42.73004545	    -16.05006998	      1.33578981	      9.15487751	     10.81420969	      6.18321949	    -10.00157073
